# AST/ASF file generated using VICON BodyLanguage
# -----------------------------------------------
:version 1.10
:name VICON
:units
  mass 1.0
  length 0.45
  angle deg
:documentation
   .ast/.asf automatically generated from VICON data using
   VICON BodyBuilder and BodyLanguage model FoxedUp or BRILLIANT.MOD
:root
   order TX TY TZ RX RY RZ
   axis XYZ
   position 0 0 0  
   orientation 0 0 0 
:bonedata
  begin
     id 1 
     name lhipjoint
     direction 0.627412 -0.730575 0.26947 
     length 2.49821 
     axis 0 0 0  XYZ
  end
  begin
     id 2 
     name lfemur
     direction 0.34202 -0.939693 0  
     length 6.89165  
     axis 0 0 20  XYZ
    dof rx ry rz
    limits (-160.0 20.0)
           (-70.0 70.0)
           (-60.0 70.0)
  end
  begin
     id 3 
     name ltibia
     direction 0.34202 -0.939693 0   
     length 7.91287   
     axis 0 0 20   XYZ
    dof rx
    limits (-10.0 170.0)
  end
  begin
     id 4 
     name lfoot
     direction 0.0941675 -0.258723 0.96135   
     length 2.16919   
     axis -90 7.62852e-016 20   XYZ
    dof rx rz
    limits (-45.0 90.0)
           (-70.0 20.0)
  end
  begin
     id 5 
     name ltoes
     direction 1.5347e-011 -4.21941e-011 1   
     length 1.08535   
     axis -90 7.62852e-016 20   XYZ
    dof rx
    limits (-90.0 20.0)
  end
  begin
     id 6 
     name rhipjoint
     direction -0.614241 -0.740361 0.27308   
     length 2.46519  
     axis 0 0 0  XYZ 
  end
  begin
     id 7 
     name rfemur
     direction -0.34202 -0.939693 0   
     length 7.27512   
     axis 0 0 -20   XYZ
    dof rx ry rz
    limits (-160.0 20.0)
           (-70.0 70.0)
           (-70.0 60.0)
  end
  begin
     id 8 
     name rtibia
     direction -0.34202 -0.939693 0   
     length 7.89523   
     axis 0 0 -20   XYZ
    dof rx
    limits (-10.0 170.0)
 end
 begin
     id 9 
     name rfoot
     direction -0.0860444 -0.236405 0.967837   
     length 2.29534  
     axis -90 -7.62852e-016 -20   XYZ
    dof rx rz
    limits (-45.0 90.0)
           (-20.0 70.0)
  end
  begin
     id 10 
     name rtoes
     direction -1.53608e-011 -4.21861e-011 1   
     length 1.14915   
     axis -90 -7.62852e-016 -20   XYZ
    dof rx
    limits (-90.0 20.0)
  end
  begin
     id 11 
     name lowerback
     direction -0.00734074 0.997215 -0.0742143   
     length 2.13469   
     axis 0 0 0   XYZ
    dof rx ry rz
    limits (-20.0 45.0)
           (-30.0 30.0)
           (-30.0 30.0)
  end
  begin
     id 12 
     name upperback
     direction 0.0285728 0.99958 -0.00488656   
     length 2.13416   
     axis 0 0 0   XYZ
    dof rx ry rz
    limits (-20.0 45.0)
           (-30.0 30.0)
           (-30.0 30.0)
  end
  begin
     id 13 
     name thorax
     direction 0.0316844 0.999056 0.0297249   
     length 2.14463   
     axis 0 0 0   XYZ
    dof rx ry rz
    limits (-20.0 45.0)
           (-30.0 30.0)
           (-30.0 30.0)
  end
  begin
     id 14 
     name lowerneck
     direction -0.0281545 0.996802 0.0747864   
     length 1.79004   
     axis 0 0 0   XYZ
    dof rx ry rz
    limits (-20.0 45.0)
           (-30.0 30.0)
           (-30.0 30.0)
  end
  begin
     id 15 
     name upperneck
     direction -0.00100185 0.982732 -0.185031   
     length 1.79988   
     axis 0 0 0   XYZ
    dof rx ry rz
    limits (-20.0 45.0)
           (-30.0 30.0)
           (-30.0 30.0)
  end
  begin
     id 16
     name head
     direction 0.00403747 0.997539 -0.0700022  
     length 1.81696  
     axis 0 0 0   XYZ
    dof rx ry rz
    limits (-20.0 45.0)
           (-30.0 30.0)
           (-30.0 30.0)
  end
  begin
     id 17 
     name lclavicle
     direction 0.959882 0.242905 -0.140082  
     length 3.87755  
     axis 0 0 0   XYZ
    dof ry rz
    limits (-20.0 10.0)
           (0.0 20.0)
  end
  begin
     id 18 
     name lhumerus
     direction 1 -4.4895e-011 3.76166e-027   
     length 5.14601   
     axis 180 -30 -90   XYZ
    dof rx ry rz
    limits (-60.0 90.0)
           (-90.0 90.0)
           (-90.0 90.0)
  end
  begin
     id 19
     name lradius
     direction 1 -4.48966e-011 -3.24039e-027   
     length 3.64452   
     axis 180 -30 -90   XYZ
    dof rx
    limits (-10.0 170.0)
  end
  begin
     id 20
     name lwrist
     direction 1 -4.48999e-011 2.57119e-027   
     length 1.82226   
     axis -1.61769e-015 90 90   XYZ
    dof ry
    limits (-180.0 0.0)
 end
  begin
     id 21 
     name lhand
     direction 1 -4.48961e-011 5.13984e-027   
     length 0.56228   
     axis -3.27988e-015 90 90   XYZ
    dof rx rz
    limits (-90.0 90.0)
           (-45.0 45.0)
  end
  begin
     id 22 
     name lfingers
     direction 1 -4.48991e-011 1.02836e-026   
     length 0.453325   
     axis -6.5598e-015 90 90   XYZ
    dof rx
    limits (0.0 90.0)
  end
  begin
     id 23
     name lthumb
     direction 0.707107 -6.34956e-011 0.707107   
     length 0.650886   
     axis -90 45 2.19363e-014   XYZ
    dof rx rz
    limits (-45.0 45.0)
           (-45.0 45.0)
  end
  begin
     id 24 
     name rclavicle
     direction -0.929201 0.345171 -0.132073   
     length 3.55416  
     axis 0 0 0   XYZ 
    dof ry rz
    limits (-10.0 20.0)
           (-20.0 0.0)
  end
  begin
     id 25 
     name rhumerus
     direction -1 -4.48979e-011 4.53734e-027  
     length 5.33913   
     axis 180 30 90   XYZ
    dof rx ry rz
    limits (-90.0 60.0)
           (-90.0 90.0)
           (-90.0 90.0)
  end
  begin
     id 26 
     name rradius
     direction -1 -4.4896e-011 -2.24007e-027   
     length 3.56478   
     axis 180 30 90   XYZ
    dof rx
    limits (-10.0 170.0)
  end
  begin
     id 27 
     name rwrist
     direction -1 -4.48923e-011 2.56866e-027   
     length 1.78239   
     axis -1.61769e-015 -90 -90   XYZ
    dof ry
    limits (-180.0 0.0)
  end
  begin
     id 28
     name rhand
     direction -1 -4.48914e-011 5.13667e-027   
     length 0.857474   
     axis -3.27988e-015 -90 -90   XYZ
    dof rx rz
    limits (-90.0 90.0)
           (-45.0 45.0)
  end
  begin
     id 29
     name rfingers
     direction -1 -4.49112e-011 1.02998e-026   
     length 0.691318   
     axis -6.5598e-015 -90 -90   XYZ
    dof rx
    limits (0.0 90.0)
  end
  begin
     id 30
     name rthumb
     direction -0.707107 -6.34979e-011 0.707107   
     length 0.992598   
     axis -90 -45 -2.19363e-014   XYZ
    dof rx rz
    limits (-45.0 45.0)
           (-45.0 45.0)
  end
:hierarchy
  begin
    root lhipjoint rhipjoint lowerback
    lhipjoint lfemur
    lfemur ltibia
    ltibia lfoot
    lfoot ltoes
    rhipjoint rfemur
    rfemur rtibia
    rtibia rfoot
    rfoot rtoes
    lowerback upperback
    upperback thorax
    thorax lowerneck lclavicle rclavicle
    lowerneck upperneck
    upperneck head
    lclavicle lhumerus
    lhumerus lradius
    lradius lwrist
    lwrist lhand lthumb
    lhand lfingers
    rclavicle rhumerus
    rhumerus rradius
    rradius rwrist
    rwrist rhand rthumb
    rhand rfingers
  end

#!OML:ASF F:\VICON\USERDATA\INSTALL\Justin4\Justin4.ASF
:FULLY-SPECIFIED
:DEGREES
1740
root -6.05669 15.986 27.7214 -11.8281 16.5308 10.9682
lowerback 14.7142 -2.3296 -8.28864
upperback 4.19678 -4.23816 0.541024
thorax -3.10905 -2.09812 5.95395
lowerneck -12.6906 1.22649 -5.10933
upperneck 18.4361 2.74938 0.169804
head 7.7151 0.977538 1.18441
rclavicle -2.33075e-014 -4.13472e-014
rhumerus -3.05062 16.0838 -79.4792
rradius 139.248
rwrist -0.870141
rhand -4.29021 28.6953
rfingers 7.12502
rthumb 21.4753 -360.134
lclavicle -2.33075e-014 -4.13472e-014
lhumerus 2.20759 -18.5837 86.9812
lradius 131.922
lwrist 9.99181
lhand -4.22055 11.1223
lfingers 7.12502
lthumb 21.5422 39.9443
rfemur -33.6319 8.11217 -3.79898
rtibia 39.3133
rfoot 17.0428 7.46855
rtoes 1.97455
lfemur 2.67785 -3.00174 -24.5855
ltibia 54.8631
lfoot 0.393562 -32.3829
ltoes 4.03993
1741
root -6.03927 16.1077 27.5929 -11.3089 16.8767 11.3301
lowerback 14.513 -2.21918 -8.70845
upperback 4.1822 -4.14782 0.230761
thorax -3.02197 -2.05497 5.83335
lowerneck -13.1885 1.20546 -5.45286
upperneck 18.8949 2.75392 0.581392
head 7.94441 0.983694 1.38855
rclavicle 9.78021e-014 3.18055e-015
rhumerus -3.05139 16.3243 -79.6422
rradius 138.728
rwrist -0.843472
rhand -4.1668 29.6554
rfingers 7.12502
rthumb 21.5938 -359.161
lclavicle 9.78021e-014 3.18055e-015
lhumerus 1.84973 -18.6601 86.9586
lradius 132.023
lwrist 9.92957
lhand -4.33659 11.0737
lfingers 7.12502
lthumb 21.4307 39.9084
rfemur -33.2446 8.07473 -4.21508
rtibia 39.3851
rfoot 15.0733 10.0566
rtoes -4.5158
lfemur 2.49123 -2.87992 -25.1938
ltibia 53.8033
lfoot 0.665311 -31.7967
ltoes 5.27427
1742
root -6.0984 16.2462 27.3602 -10.1978 15.0325 5.54981
lowerback 13.5983 -2.19636 -3.49949
upperback 3.25949 -3.28867 1.74344
thorax -3.86892 -1.59548 4.3485
lowerneck -13.7037 1.24219 -5.76476
upperneck 19.5452 2.83225 1.02082
head 8.2394 1.02649 1.60971
rclavicle -8.57259e-014 2.22639e-014
rhumerus -3.61117 16.5408 -79.94
rradius 138.479
rwrist -0.770394
rhand -4.34751 29.6402
rfingers 7.12502
rthumb 21.4202 -359.196
lclavicle -8.57259e-014 2.22639e-014
lhumerus 1.5743 -18.7751 86.8986
lradius 132.022
lwrist 10.1234
lhand -4.39584 11.2232
lfingers 7.12502
lthumb 21.3738 40.0643
rfemur -36.1211 10.3598 2.00114
rtibia 39.9716
rfoot 13.3464 10.1672
rtoes -10.207
lfemur -1.64121 -1.28103 -17.8156
ltibia 54.0151
lfoot 1.80047 -32.5961
ltoes 5.43663
1743
root -6.09074 16.3405 27.23 -9.5897 15.5139 6.4277
lowerback 13.5123 -1.99501 -4.4779
upperback 3.23467 -3.18016 1.21679
thorax -3.83403 -1.53562 4.32522
lowerneck -14.2606 1.29643 -5.66216
upperneck 20.0158 2.96118 0.895875
head 8.49866 1.06976 1.5794
rclavicle 1.13804e-014 -1.74931e-014
rhumerus -4.27059 16.9046 -80.4122
rradius 138.398
rwrist -0.712689
rhand -4.28287 29.2299
rfingers 7.12502
rthumb 21.4823 -359.599
lclavicle 1.13804e-014 -1.74931e-014
lhumerus 1.8273 -18.7415 86.6126
lradius 131.817
lwrist 10.5374
lhand -4.32084 11.7336
lfingers 7.12502
lthumb 21.4458 40.5665
rfemur -36.1042 9.32171 1.60879
rtibia 41.7538
rfoot 11.0295 11.2779
rtoes -9.49853
lfemur -2.2299 -0.911035 -18.8809
ltibia 53.5838
lfoot 2.36694 -32.0649
ltoes 6.56487
1744
root -6.10009 16.4307 27.0898 -9.21837 15.769 6.19465
lowerback 13.4565 -1.90931 -4.55981
upperback 3.10018 -3.08851 1.0084
thorax -3.9626 -1.48307 4.13919
lowerneck -13.8677 1.23907 -5.55458
upperneck 19.7429 2.90238 0.54333
head 8.34646 1.02155 1.42806
rclavicle 2.76311e-014 -7.95139e-016
rhumerus -5.10791 17.5921 -81.0241
rradius 138.403
rwrist -0.776275
rhand -4.28611 29.286
rfingers 7.12502
rthumb 21.4792 -359.543
lclavicle 2.76311e-014 -7.95139e-016
lhumerus 1.64119 -18.5428 86.4136
lradius 131.768
lwrist 10.6592
lhand -4.10267 12.1912
lfingers 7.12502
lthumb 21.6554 41.0002
rfemur -36.276 8.5106 2.56319
rtibia 44.0495
rfoot 9.77998 10.6148
rtoes -5.61165
lfemur -3.04109 -0.103286 -18.4173
ltibia 53.4747
lfoot 2.8821 -32.1378
ltoes 5.66754
1745
root -6.12003 16.5257 26.9545 -8.86926 16.1477 6.12656
lowerback 13.6494 -1.89217 -5.08151
upperback 2.30744 -3.17979 0.84763
thorax -4.8768 -1.47761 4.31565
lowerneck -10.7633 1.27299 -5.4612
upperneck 18.5163 2.8018 0.0102315
head 7.39629 0.973132 1.17445
rclavicle -2.84883e-014 1.59028e-014
rhumerus -7.07052 18.7325 -81.9647
rradius 138.242
rwrist -0.703757
rhand -4.77993 29.5373
rfingers 7.12502
rthumb 21.0048 -359.345
lclavicle -2.84883e-014 1.59028e-014
lhumerus -0.482021 -18.2219 86.8731
lradius 132.102
lwrist 10.4085
lhand -3.8962 12.1704
lfingers 7.12502
lthumb 21.8536 40.9563
rfemur -36.5373 7.54832 3.47037
rtibia 47.1131
rfoot 8.18099 9.63024
rtoes -2.02536
lfemur -3.71262 0.775469 -17.9984
ltibia 52.8529
lfoot 4.6411 -32.4189
ltoes 5.1689
1746
root -6.14585 16.6269 26.8208 -8.42104 16.6963 6.38878
lowerback 13.8021 -1.67827 -5.65976
upperback 2.287 -3.01382 0.41266
thorax -4.99407 -1.3836 4.16265
lowerneck -11.0118 1.01855 -5.34045
upperneck 18.4584 2.45939 -0.0621403
head 7.43396 0.811229 1.10126
rclavicle 3.52967e-014 -3.65764e-014
rhumerus -7.36836 18.8899 -82.5493
rradius 137.836
rwrist -0.587605
rhand -5.19463 29.4705
rfingers 7.12502
rthumb 20.6064 -359.456
lclavicle 3.52967e-014 -3.65764e-014
lhumerus -0.466333 -18.4487 86.6723
lradius 132.197
lwrist 10.3641
lhand -3.88511 12.1948
lfingers 7.12502
lthumb 21.8643 40.9796
rfemur -36.6471 6.38982 4.07367
rtibia 50.2167
rfoot 6.4835 8.98015
rtoes 0.353627
lfemur -4.63299 1.64739 -17.8509
ltibia 52.3173
lfoot 7.47491 -32.6669
ltoes 7.01533
1747
root -6.17296 16.733 26.6859 -8.14399 17.2319 6.25101
lowerback 14.0192 -1.50637 -5.82796
upperback 2.37332 -2.83861 0.0880537
thorax -5.04979 -1.29514 3.89205
lowerneck -11.9599 0.732358 -5.75643
upperneck 18.8902 2.12653 0.421164
head 7.74433 0.654995 1.3097
rclavicle -3.2464e-014 -1.27222e-014
rhumerus -7.64135 19.2199 -83.117
rradius 137.594
rwrist -0.0140526
rhand -5.2287 28.5365
rfingers 7.12502
rthumb 20.5737 -360.393
lclavicle -3.2464e-014 -1.27222e-014
lhumerus -0.0997242 -18.5327 86.4281
lradius 132.201
lwrist 10.428
lhand -3.79373 12.4045
lfingers 7.12502
lthumb 21.952 41.179
rfemur -36.5579 5.25633 5.13136
rtibia 53.2802
rfoot 5.17483 8.31872
rtoes 2.62468
lfemur -5.58944 2.61146 -17.1934
ltibia 51.8587
lfoot 10.762 -32.9726
ltoes 9.19849
1748
root -6.20173 16.829 26.5528 -8.0956 17.673 5.7089
lowerback 14.2298 -1.35452 -5.59835
upperback 2.55295 -2.62266 -0.16665
thorax -5.02091 -1.19735 3.46037
lowerneck -12.9663 0.439866 -6.19414
upperneck 19.2643 1.77883 0.985562
head 8.05045 0.50218 1.54641
rclavicle -2.76186e-014 -3.97569e-015
rhumerus -7.82731 19.5186 -83.6889
rradius 137.311
rwrist 0.856536
rhand -5.13159 27.0148
rfingers 7.12502
rthumb 20.667 -361.905
lclavicle -2.76186e-014 -3.97569e-015
lhumerus 0.266505 -18.503 86.1055
lradius 132.206
lwrist 10.53
lhand -3.62889 12.4424
lfingers 7.12502
lthumb 22.1103 41.1982
rfemur -36.3247 4.18762 6.63371
rtibia 56.2644
rfoot 3.91144 8.01372
rtoes 1.0324
lfemur -6.50624 3.68702 -16.0324
ltibia 51.523
lfoot 14.3707 -33.3434
ltoes 10.3593
1749
root -6.24043 16.9108 26.4208 -8.2716 18.1233 4.70957
lowerback 14.604 -1.25817 -5.06191
upperback 2.65041 -2.43962 -0.312443
thorax -5.17049 -1.11236 2.984
lowerneck -13.484 0.203661 -6.4152
upperneck 19.4238 1.45311 1.41118
head 8.2033 0.370192 1.69659
rclavicle 2.67987e-014 -9.54166e-015
rhumerus -8.12045 19.4059 -84.3509
rradius 136.907
rwrist 0.623453
rhand -4.44794 27.6944
rfingers 7.12502
rthumb 21.3238 -361.152
lclavicle 2.67987e-014 -9.54166e-015
lhumerus 0.346799 -18.4216 85.8258
lradius 132.233
lwrist 10.541
lhand -3.64559 12.2887
lfingers 7.12502
lthumb 22.0943 41.0464
rfemur -35.9474 3.20109 8.62397
rtibia 59.1149
rfoot 3.18298 7.42466
rtoes -1.92478
lfemur -7.47516 4.81613 -14.2694
ltibia 51.3364
lfoot 17.6637 -33.7703
ltoes 9.68366
1750
root -6.27119 16.9831 26.2829 -8.25527 18.9218 4.1367
lowerback 15.1243 -1.2515 -4.78074
upperback 2.61847 -2.43352 -0.60433
thorax -5.51529 -1.10377 2.53549
lowerneck -13.8987 -0.118386 -6.65099
upperneck 19.6373 1.02555 1.74379
head 8.3645 0.179959 1.80632
rclavicle 2.47984e-014 1.68967e-014
rhumerus -8.55697 19.3661 -85.0133
rradius 136.58
rwrist 0.594313
rhand -4.30285 29.0971
rfingers 7.12502
rthumb 21.4631 -359.734
lclavicle 2.47984e-014 1.68967e-014
lhumerus 0.370151 -18.3119 85.6314
lradius 132.212
lwrist 10.5076
lhand -3.58614 12.3574
lfingers 7.12502
lthumb 22.1513 41.1083
rfemur -35.5577 1.72875 9.99253
rtibia 61.8072
rfoot 3.28874 5.54953
rtoes 5.25915
lfemur -8.55914 5.57457 -13.1568
ltibia 51.2169
lfoot 18.9639 -34.0292
ltoes 4.50547
